<svg width="29" height="28" viewBox="0 0 29 28" fill="none" xmlns="http://www.w3.org/2000/svg">
<path d="M21.4929 1H7.50713C3.64331 1 0.5 4.16569 0.5 8.05701V20.943C0.5 24.8343 3.64331 28 7.50713 28H21.4929C25.3567 28 28.5 24.8343 28.5 20.943V8.05701C28.5 4.16569 25.3567 1 21.4929 1ZM2.97189 8.05701C2.97189 5.53881 5.00673 3.48947 7.50713 3.48947H21.4929C23.9933 3.48947 26.0281 5.53881 26.0281 8.05701V20.943C26.0281 23.4612 23.9933 25.5105 21.4929 25.5105H7.50713C5.00673 25.5105 2.97189 23.4612 2.97189 20.943V8.05701Z" fill="#F1ECDB"/>
<path d="M14 20C17.5832 20 20.5 17.0848 20.5 13.5C20.5 9.9152 17.5848 7 14 7C10.4152 7 7.5 9.9152 7.5 13.5C7.5 17.0848 10.4152 20 14 20ZM14 9.4667C16.2251 9.4667 18.0349 11.2765 18.0349 13.5016C18.0349 15.7267 16.2251 17.5365 14 17.5365C11.7749 17.5365 9.96514 15.7267 9.96514 13.5016C9.96514 11.2765 11.7749 9.4667 14 9.4667Z" fill="#F1ECDB"/>
<path d="M21.5 9C22.6019 9 23.5 8.10372 23.5 7.00002C23.5 5.89632 22.6037 5 21.5 5C20.3963 5 19.5 5.89632 19.5 7.00002C19.5 8.10372 20.3963 9 21.5 9Z" fill="#F1ECDB"/>
</svg>
