<svg width="27" height="26" viewBox="0 0 27 26" fill="none" xmlns="http://www.w3.org/2000/svg">
<path d="M1.18308 11.9844C1.24279 11.9525 1.30252 11.9222 1.36074 11.8935C2.3728 11.3924 3.39829 10.9233 4.42229 10.4542C4.47752 10.4542 4.57005 10.3856 4.62229 10.3632C4.70141 10.3265 4.78053 10.2915 4.85965 10.2548C5.0119 10.1845 5.16417 10.1159 5.31493 10.0457C5.61945 9.9069 5.92245 9.7681 6.22696 9.62928C6.83449 9.35164 7.44202 9.07401 8.04956 8.79477C9.26462 8.2395 10.4812 7.6826 11.6963 7.12732C12.9113 6.57204 14.1279 6.01518 15.343 5.4599C16.558 4.90463 17.7746 4.34776 18.9897 3.79249C20.2047 3.23721 21.4213 2.68035 22.6364 2.12507C22.9066 2.00061 23.1991 1.81551 23.4887 1.76126C23.732 1.71499 23.9693 1.62565 24.2141 1.57618C24.6784 1.48204 25.1904 1.44374 25.6352 1.64958C25.789 1.72138 25.9308 1.82188 26.0487 1.94794C26.6129 2.5447 26.5338 3.52443 26.4144 4.36373C25.583 10.2133 24.7515 16.0644 23.9186 21.914C23.8051 22.7166 23.6499 23.5973 23.0573 24.1048C22.5557 24.534 21.8422 24.5818 21.2227 24.3999C20.6033 24.2164 20.057 23.8319 19.5211 23.4537C17.2984 21.8804 15.0743 20.3071 12.8516 18.7339C12.3232 18.3605 11.7351 17.8722 11.7411 17.1941C11.7441 16.7856 11.9724 16.4218 12.2053 16.0979C14.1369 13.4045 16.9237 11.5536 18.9971 8.98464C19.2897 8.62244 19.5196 7.96824 19.118 7.75922C18.8792 7.63476 18.6045 7.80386 18.3866 7.96502C15.646 9.99944 12.9069 12.0355 10.1662 14.0699C9.27211 14.7336 8.33469 15.4166 7.25695 15.5793C6.29266 15.7261 5.3224 15.4389 4.38946 15.1453C3.60728 14.8996 2.82656 14.6475 2.04886 14.3874C1.63538 14.2502 1.20846 14.1018 0.889018 13.7906C0.569577 13.4795 0.385999 12.9562 0.578558 12.5413C0.699468 12.2812 0.933828 12.1169 1.18013 11.9828L1.18308 11.9844Z" fill="#F1ECDB"/>
</svg>
