<svg width="29" height="28" viewBox="0 0 29 28" fill="none" xmlns="http://www.w3.org/2000/svg">
<g clip-path="url(#clip0_87_68)">
<path fill-rule="evenodd" clip-rule="evenodd" d="M2.53 2.03C0.5 4.07933 0.5 7.35633 0.5 13.92V15.08C0.5 21.634 0.5 24.911 2.53 26.97C4.57933 29 7.85633 29 14.42 29H15.58C22.134 29 25.411 29 27.47 26.97C29.5 24.9207 29.5 21.6437 29.5 15.08V13.92C29.5 7.366 29.5 4.089 27.47 2.03C25.4207 1.72853e-07 22.1437 0 15.58 0H14.42C7.866 0 4.589 1.72853e-07 2.53 2.03ZM5.39133 8.82567C5.546 16.3657 9.316 20.8897 15.928 20.8897H16.3147V16.5783C18.741 16.82 20.5777 18.5987 21.3123 20.8897H24.744C24.3921 19.5879 23.768 18.3754 22.9132 17.3323C22.0585 16.2893 20.9923 15.4393 19.785 14.8383C20.8668 14.1796 21.8012 13.3046 22.5297 12.2685C23.2582 11.2323 23.7652 10.057 24.019 8.816H20.9063C20.2297 11.2133 18.219 13.3883 16.3147 13.5913V8.82567H13.1923V17.1777C11.259 16.6943 8.823 14.355 8.71666 8.82567H5.39133Z" fill="#F1ECDB"/>
</g>
<defs>
<clipPath id="clip0_87_68">
<rect width="28" height="28" fill="white" transform="translate(0.5)"/>
</clipPath>
</defs>
</svg>
